<?xml version="1.0" encoding="UTF-8" standalone="no"?>
<!-- Svg Vector Icons : http://www.onlinewebfonts.com/icon -->

<svg
   xmlns:dc="http://purl.org/dc/elements/1.1/"
   xmlns:cc="http://creativecommons.org/ns#"
   xmlns:rdf="http://www.w3.org/1999/02/22-rdf-syntax-ns#"
   xmlns:svg="http://www.w3.org/2000/svg"
   xmlns="http://www.w3.org/2000/svg"
   xmlns:sodipodi="http://sodipodi.sourceforge.net/DTD/sodipodi-0.dtd"
   xmlns:inkscape="http://www.inkscape.org/namespaces/inkscape"
   version="1.1"
   x="0px"
   y="0px"
   viewBox="0 0 1000 1000"
   enable-background="new 0 0 1000 1000"
   xml:space="preserve"
   id="svg8"
   sodipodi:docname="table.svg"
   inkscape:version="0.92.2 (5c3e80d, 2017-08-06)"><defs
     id="defs12" /><sodipodi:namedview
     pagecolor="#ffffff"
     bordercolor="#666666"
     borderopacity="1"
     objecttolerance="10"
     gridtolerance="10"
     guidetolerance="10"
     inkscape:pageopacity="0"
     inkscape:pageshadow="2"
     inkscape:window-width="1920"
     inkscape:window-height="1058"
     id="namedview10"
     showgrid="false"
     inkscape:zoom="0.236"
     inkscape:cx="500"
     inkscape:cy="500"
     inkscape:window-x="1912"
     inkscape:window-y="-8"
     inkscape:window-maximized="1"
     inkscape:current-layer="svg8" /><metadata
     id="metadata2"> Svg Vector Icons : http://www.onlinewebfonts.com/icon <rdf:RDF><cc:Work
     rdf:about=""><dc:format>image/svg+xml</dc:format><dc:type
       rdf:resource="http://purl.org/dc/dcmitype/StillImage" /></cc:Work></rdf:RDF></metadata><g
     id="g6"
     style="fill:#aa0000"><path
       d="M500,10C229.4,10,10,229.4,10,500c0,270.6,219.4,490,490,490c270.6,0,490-219.4,490-490C990,229.4,770.6,10,500,10L500,10z M715.4,314.8c6.3,6.2,6.3,16.4,0,22.6l-90.9,90.8c-6.2,6.2-16.4,6.2-22.6,0c-6.2-6.2-6.2-16.4,0-22.6l90.9-90.8C699,308.5,709.2,308.5,715.4,314.8L715.4,314.8z M555.6,358.8l90.6-90.6c6.3-6.2,16.4-6.2,22.7,0c6.2,6.2,6.2,16.4,0,22.6l-90.7,90.7c-19.4,19.4-19.4,51,0,70.4c9.4,9.4,21.9,14.6,35.3,14.6c13.3,0,25.7-5.2,35.1-14.6l90.7-90.6c6.3-6.2,16.4-6.2,22.6,0c6.2,6.3,6.2,16.4,0,22.6c0,0-90.7,90.6-90.7,90.6c-15.4,15.5-35.9,24-57.8,24c-21.8,0-42.5-8.5-57.9-24C523.7,442.7,523.7,390.7,555.6,358.8L555.6,358.8z M320.3,759.7c-13.8,13.8-36.1,13.8-49.8,0c-13.8-13.8-13.8-36.1,0-49.9l149-149l49.9,49.9L320.3,759.7L320.3,759.7z M758.6,759.7c-13.8,13.8-36.1,13.8-49.9,0L548.3,599.2h0c-15.6,15.6-41,15.6-56.5,0L273.3,380.8c-7.8-7.9-11.8-18.2-11.7-28.4v-52.9h0.2c-0.4-9.5,2.9-19.2,10.2-26.5c13.8-13.8,36.1-13.8,49.9,0l436.8,436.8C772.5,723.6,772.5,746,758.6,759.7L758.6,759.7z"
       id="path4"
       style="fill:#aa0000" /></g></svg>